<svg width="462" height="265" viewBox="0 0 462 265" fill="none" xmlns="http://www.w3.org/2000/svg">
<path d="M33.2249 147.388V124.167V56.1434C33.2249 41.8117 45.1689 33.9942 57.112 33.9942C69.0561 33.9942 80.9992 41.8117 80.9992 56.1434V147.388H81.0001V156.789H114.225V147.388H114.226V56.1434C114.226 41.8117 126.169 33.9942 138.112 33.9942C150.056 33.9942 162 41.8117 162 56.1434V124.167V147.388V156.789H195.225V147.388V124.167V56.1434C195.225 20.3131 166.778 0.551514 139.415 0.551514C123.563 0.551514 107.928 7.28358 97.7206 19.6614C87.5154 7.28358 72.0973 0.551514 56.2436 0.551514C28.6645 0.551514 0 20.53 0 56.1434V124.167V147.388V199.496C7.80647 189.082 19.8517 181.876 33.2249 180.219V147.388Z" fill="#16295D"/>
<path d="M274.124 2.3894H212.233V35.6142H274.124C283.678 35.6142 288.455 41.26 288.455 46.9067C288.455 52.5525 283.678 58.1992 274.124 58.1992H212.233V156.789H274.124C309.737 156.789 327.544 133.119 327.544 109.665C327.544 95.5497 321.246 81.4348 308.217 72.3141C316.904 65.3651 321.029 55.1589 321.029 44.735C321.029 24.5396 305.394 2.3894 274.124 2.3894ZM245.458 89.2523H274.124C287.153 89.2523 293.667 97.9392 293.667 106.408C293.667 115.094 287.153 123.563 274.124 123.563H245.458V89.2523Z" fill="#16295D"/>
<path fill-rule="evenodd" clip-rule="evenodd" d="M334.706 89.2515V91.0758V94.6813C334.706 95.7456 334.733 96.7951 334.778 97.8346H334.829L334.832 98.591H334.814L334.833 98.8795V98.931H334.837C337.005 135.644 367.18 156.373 397.638 156.779V156.786L398.262 156.789L398.407 156.788L398.551 156.789C410.483 156.789 422.313 153.613 432.493 147.613L433.183 147.201L433.244 147.164C449.092 137.582 460.783 121.063 462 98.591H428.642C427.882 104.722 425.34 109.791 421.7 113.711C415.867 119.92 407.072 123.312 398.467 123.347H398.454H398.441H398.428H398.414H398.401H398.388H398.375H398.362H398.349H398.335H398.333H398.322H398.309L398.296 123.346H398.283H398.27H398.256H398.243H398.23H398.216H398.204H398.191L398.177 123.345H398.164H398.151H398.137H398.125H398.112H398.099L398.085 123.344H398.072H398.059H398.046H398.033H398.02L398.006 123.343H397.993H397.98H397.967H397.954L397.941 123.342H397.928H397.914H397.901L397.638 123.337V123.339C383.901 123.059 370.359 114.46 368.227 98.9926L368.052 79.5885H368.03L368.227 57.7968C370.359 42.329 383.901 33.7303 397.638 33.45V33.4528L397.901 33.4472H397.914H397.928H397.941L397.954 33.4463H397.967H397.98H397.993H398.006L398.02 33.4454H398.033H398.046H398.059H398.072H398.085L398.099 33.4445H398.112H398.125H398.137H398.151H398.164H398.177L398.191 33.4435H398.204H398.216H398.23H398.243H398.256H398.27H398.283H398.296L398.309 33.4427H398.322H398.333H398.335H398.349H398.362H398.375H398.388H398.401H398.414H398.428H398.441H398.454H398.467C407.072 33.4776 415.867 36.8689 421.7 43.078C425.34 46.9987 427.882 52.0674 428.642 58.1984H462C460.783 35.7265 449.092 19.2073 433.244 9.62524L433.183 9.58853L432.493 9.17675C422.313 3.17623 410.483 0 398.551 0L398.407 0.00179503L398.262 0L397.638 0.00367982V0.0101419C367.18 0.416365 337.005 21.1457 334.837 57.8583H334.833V57.9098L334.814 58.1984H334.832L334.713 89.2515H334.706Z" fill="#16295D"/>
<path d="M398.352 90.7621C405.44 90.7621 411.185 85.2249 411.185 78.3944C411.185 71.5639 405.44 66.0266 398.352 66.0266C391.265 66.0266 385.52 71.5639 385.52 78.3944C385.52 85.2249 391.265 90.7621 398.352 90.7621Z" fill="#EAA73E"/>
<path d="M39.1114 211.724C44.1524 211.724 48.7366 214.228 51.4865 217.91L68.1389 201.857C60.9583 194.051 50.5702 189.044 39.1114 189.044C17.8747 189.044 0 206.275 0 226.746C0 247.218 17.8748 264.448 39.57 264.448C51.1814 264.448 62.1807 259.441 69.6664 251.636L53.0139 235.583C49.8055 239.264 44.9171 241.769 39.57 241.769C30.555 241.769 23.3752 234.994 23.3752 226.746C23.3752 218.499 30.555 211.724 39.1114 211.724ZM122.833 226.746C122.833 236.467 115.958 241.769 109.084 241.769C102.208 241.769 95.3338 236.467 95.3338 226.746V190.517H71.9585V226.746C71.9585 251.047 90.4444 264.448 108.93 264.448C127.569 264.448 146.207 250.9 146.207 226.746V190.517H122.833V226.746ZM178.292 262.829V173.261H154.917V262.829H178.292ZM186.847 173.261V232.637C186.847 251.636 203.805 264.448 221.528 264.448C230.388 264.448 239.249 261.209 246.583 253.845L230.082 237.939C227.332 240.591 224.125 241.769 220.917 241.769C215.416 241.769 210.221 238.086 210.221 232.637V173.261H186.847ZM299.902 226.746C299.902 236.467 293.028 241.769 286.152 241.769C279.278 241.769 272.403 236.467 272.403 226.746V190.517H249.028V226.746C249.028 251.047 267.514 264.448 285.999 264.448C304.638 264.448 323.277 250.9 323.277 226.746V190.517H299.902V226.746ZM354.138 262.829V220.831C354.138 215.382 359.333 211.724 364.834 211.724C368.041 211.724 371.249 212.878 373.999 215.529L390.499 199.648C383.166 192.284 374.305 189.044 365.445 189.044C347.722 189.044 330.764 201.857 330.764 220.831V262.829H354.138ZM411.43 221.003C413.874 215.112 419.527 210.988 425.485 210.988C430.527 210.988 435.416 213.933 436.486 216.732L411.43 221.003ZM413.111 235.436L461.999 226.746C461.999 206.275 446.874 189.044 426.555 189.044C406.235 189.044 388.361 206.275 388.361 226.746C388.361 247.218 406.235 264.448 427.93 264.448C438.471 264.448 448.25 260.326 455.736 253.845L440.763 237.939C437.707 240.296 433.583 241.769 428.846 241.769C422.583 241.769 416.624 239.264 413.111 235.436Z" fill="#16295D"/>
<path d="M226.284 214.062C233.371 214.062 239.117 208.525 239.117 201.694C239.117 194.864 233.371 189.327 226.284 189.327C219.196 189.327 213.451 194.864 213.451 201.694C213.451 208.525 219.196 214.062 226.284 214.062Z" fill="#EAA73E"/>
</svg>
